# xmcd CD database file
#
# Track frame offsets:
#	150
#	12842
#	23267
#	38221
#	50356
#	62178
#	74307
#	85662
#	96846
#	108700
#	122085
#	131702
#	146319
#	161001
#	175314
#	193073
#	209468
#	219768
#	235050
#	248052
#	257884
#	267887
#	278457
#	287017
#	301884
#	316297
#
# Disc length: 4411 seconds
#
# Revision: 0
# Processed by: cddbd v1.4PL0 Copyright (c) Steve Scherf et al.
# Submitted via: CDex 1.40Release
#
DISCID=6d11391a
DTITLE=Varius Artists - Charly`s Shoes
DYEAR=2002
DGENRE=Country
TTITLE0=Lynn Anderson/Top Of The World
TTITLE1=Johnny Russel/Act Naturally
TTITLE2=Billy Joe Spears/Midnight Love
TTITLE3=La Costa Tucker/He Took Me For A Ride
TTITLE4=Del Reeves/Girl On A Billboard
TTITLE5=Johnny Cash/Next Line 
TTITLE6=Bobby Bare/Music City USA
TTITLE7=Porter Wagoner/Misery Loves  Company
TTITLE8=Dave Dudlley/Mad
TTITLE9=Jean Shepheart/The Blue Tail Fly
TTITLE10=Dave Dudley/Cowboy Boots
TTITLE11=John Denver/Take Me Home, Country Roads
TTITLE12=M.Bondy/Till I´m Too Old To Die Young
TTITLE13=Kitty Wels/Careless Love
TTITLE14=Lynn Anderson Go Tell It On The Mountain
TTITLE15=Donna Fargo/House Of The Rising Sun
TTITLE16=Johnny Russel/Jambalaya
TTITLE17=Red Simpson/I`m A Truck
TTITLE18=Kenny Rodgers/Ruby,Dont`Take Your Love To Town
TTITLE19=Johnny Cash/Ballad Of A Teenage Queen
TTITLE20=Buddy Knox/Devil Woman
TTITLE21=Johnny Russel/King Of The Road
TTITLE22=Johnny Cash/Caty Too
TTITLE23=Jeannie C. Riley/Harper Valley
TTITLE24=Rednex/Cotton Eye Joe
TTITLE25=Varius Artists/Dueling Banjo
EXTD=YEAR: 2002 ID3G: 2
EXTT0=
EXTT1=
EXTT2=
EXTT3=
EXTT4=
EXTT5=
EXTT6=
EXTT7=
EXTT8=
EXTT9=
EXTT10=
EXTT11=
EXTT12=
EXTT13=
EXTT14=
EXTT15=
EXTT16=
EXTT17=
EXTT18=
EXTT19=
EXTT20=
EXTT21=
EXTT22=
EXTT23=
EXTT24=
EXTT25=
PLAYORDER=
